<!doctype html>
<svg viewBox="5.368 9.72 531.762 486.215" width="531.762" height="486.215">
  <path d="M 544.186 39.919 L 157.786 39.919 C 111.306 39.919 76.587 83.036 86.665 128.399 L 136.505 357.999 C 143.786 391.601 173.466 415.679 207.626 415.679 L 266.985 415.676 L 322.426 509.754 C 335.305 531.594 366.664 531.594 379.547 509.754 L 434.985 415.676 L 493.786 415.676 C 527.946 415.676 557.626 391.598 564.907 357.996 L 614.747 128.396 C 625.384 83.037 590.665 39.919 544.185 39.919 L 544.186 39.919 Z M 456.827 211.839 L 414.268 253.839 C 412.589 255.519 412.03 257.761 412.03 260.558 L 422.108 318.238 C 423.788 327.199 414.268 333.918 406.428 329.437 L 353.787 301.437 C 351.549 300.316 349.306 300.316 347.068 301.437 L 294.99 328.878 C 287.15 332.8 277.631 326.077 279.31 317.679 L 289.384 258.32 C 289.943 256.082 288.826 253.281 287.146 251.601 L 245.146 210.722 C 238.986 204.562 242.345 193.921 251.306 192.242 L 310.665 183.844 C 312.903 183.286 315.146 182.164 316.267 179.922 L 342.029 127.281 C 345.951 119.441 357.15 119.441 361.068 127.281 L 387.388 181.043 C 388.509 183.281 390.747 184.965 392.989 184.965 L 450.665 193.36 C 459.626 195.039 462.985 205.68 456.825 211.84 L 456.827 211.839 Z" transform="matrix(1, 0, 0, 1, -79.546045, -30.1985)"></path>
</svg>